<svg width="32" height="32" viewBox="0 0 32 32" fill="none" xmlns="http://www.w3.org/2000/svg">
<path d="M19.9999 29.3337V24.0003C20.1854 22.33 19.7065 20.6538 18.6666 19.3337C22.6666 19.3337 26.6666 16.667 26.6666 12.0003C26.7732 10.3337 26.3066 8.69366 25.3332 7.33366C25.7066 5.80033 25.7066 4.20033 25.3332 2.66699C25.3332 2.66699 23.9999 2.66699 21.3332 4.66699C17.8132 4.00033 14.1866 4.00033 10.6666 4.66699C7.99989 2.66699 6.66655 2.66699 6.66655 2.66699C6.26655 4.20033 6.26655 5.80033 6.66655 7.33366C5.69572 8.68817 5.22452 10.3374 5.33322 12.0003C5.33322 16.667 9.33322 19.3337 13.3332 19.3337C12.8132 19.987 12.4266 20.7337 12.1999 21.5337C11.9732 22.3337 11.9066 23.1737 11.9999 24.0003V29.3337" stroke="#4B5563" stroke-width="2" stroke-linecap="round" stroke-linejoin="round"/>
<path d="M12.0001 23.9997C5.98675 26.6663 5.33341 21.333 2.66675 21.333" stroke="#4B5563" stroke-width="2" stroke-linecap="round" stroke-linejoin="round"/>
</svg>
