<svg width="32" height="32" viewBox="0 0 32 32" fill="none" xmlns="http://www.w3.org/2000/svg">
<path d="M16 4C14.4087 5.5913 13.5147 7.74956 13.5147 10C13.5147 12.2504 14.4087 14.4087 16 16C17.5913 17.5913 19.7496 18.4853 22 18.4853C24.2504 18.4853 26.4087 17.5913 28 16C28 18.3734 27.2962 20.6935 25.9776 22.6668C24.6591 24.6402 22.7849 26.1783 20.5922 27.0866C18.3995 27.9948 15.9867 28.2324 13.6589 27.7694C11.3312 27.3064 9.19295 26.1635 7.51472 24.4853C5.83649 22.8071 4.6936 20.6689 4.23058 18.3411C3.76756 16.0133 4.0052 13.6005 4.91345 11.4078C5.8217 9.21509 7.35977 7.34094 9.33316 6.02236C11.3066 4.70379 13.6266 4 16 4Z" stroke="#4B5563" stroke-width="2" stroke-linecap="round" stroke-linejoin="round"/>
<path d="M25.3333 4V9.33333" stroke="#4B5563" stroke-width="2" stroke-linecap="round" stroke-linejoin="round"/>
<path d="M28.0001 6.66699H22.6667" stroke="#4B5563" stroke-width="2" stroke-linecap="round" stroke-linejoin="round"/>
</svg>
